<?xml version="1.0" encoding="UTF-8"?>
<svg width="1154px" height="686px" viewBox="0 0 1154 686" version="1.1" xmlns="http://www.w3.org/2000/svg" xmlns:xlink="http://www.w3.org/1999/xlink">
    <title>G&amp;B Ventures</title>
    <defs>
        <path d="M217.73628,347.487576 C230.932419,347.487576 242.620427,346.356615 252.800305,344.094694 C262.980183,341.832774 272.594512,338.816879 281.643293,335.047011 L281.643293,272.561451 L240.92378,272.561451 C234.89126,272.561451 230.178354,270.959257 226.785061,267.754869 C223.391768,264.550481 221.695122,260.497873 221.695122,255.597045 L221.695122,203.007388 L368.172256,203.007388 L368.172256,376.892545 C357.615346,384.620775 346.634273,391.265167 335.22904,396.825722 C323.823806,402.386277 311.664507,406.957242 298.751143,410.538617 C285.837779,414.119991 272.076092,416.758899 257.466082,418.455339 C242.856072,420.15178 227.162093,421 210.384146,421 C180.221545,421 152.321138,415.675062 126.682927,405.025185 C101.044715,394.375308 78.8469258,379.672823 60.0895579,360.91773 C41.33219,342.162637 26.6279217,319.920416 15.976753,294.191068 C5.32558435,268.461719 0,240.517573 0,210.35863 C0,179.634206 5.08993902,151.40732 15.2698171,125.677972 C25.4496951,99.9486232 40.0125762,77.7535259 58.9584604,59.0926797 C77.9043445,40.4318334 100.80907,25.917842 127.672637,15.5507052 C154.536204,5.18356839 184.557419,0 217.73628,0 C234.89126,0 251.0094,1.41370047 266.090701,4.24110141 C281.172002,7.06850235 295.075076,10.932617 307.799924,15.8334453 C320.524771,20.7342736 332.16565,26.5775688 342.722561,33.3633311 C353.279472,40.1490934 362.705285,47.5003358 371,55.4170584 L343.28811,97.5453324 C340.648882,101.503694 337.491235,104.613835 333.815168,106.875756 C330.139101,109.137676 326.13313,110.268637 321.797256,110.268637 C316.141768,110.268637 310.297764,108.383703 304.265244,104.613835 C296.724593,100.089993 289.608105,96.1787553 282.915777,92.8801209 C276.22345,89.5814865 269.389736,86.8954556 262.414634,84.8220282 C255.439533,82.7486009 248.087398,81.2406537 240.358232,80.2981867 C232.629065,79.3557197 223.957317,78.8844862 214.342988,78.8844862 C196.433943,78.8844862 180.315803,82.0417506 165.988567,88.3562794 C151.661331,94.6708081 139.454903,103.577121 129.369284,115.075218 C119.283664,126.573315 111.507368,140.380457 106.040396,156.496642 C100.573425,172.612827 97.839939,190.566823 97.839939,210.35863 C97.839939,232.223864 100.856199,251.638684 106.88872,268.603089 C112.92124,285.567495 121.263084,299.892993 131.914253,311.579584 C142.565422,323.266174 155.196011,332.172487 169.806021,338.298522 C184.416032,344.424558 200.392785,347.487576 217.73628,347.487576 Z" id="path-1"></path>
        <path d="M580.823197,0 C599.116455,0 615.240924,2.68603089 629.196605,8.05809268 C643.152287,13.4301545 654.93918,20.4986568 664.557284,29.2635997 C674.175389,38.0285426 681.719,48.1600627 687.188119,59.6581598 C692.657237,71.156257 696.051862,82.9370942 697.371994,95.0006716 L640.794908,106.310275 C639.851957,106.498769 639.050448,106.640139 638.390382,106.734385 C637.730316,106.828632 637.023102,106.875756 636.268741,106.875756 C628.347949,106.875756 622.50165,102.728901 618.729844,94.4351914 C614.392268,84.6335348 609.347478,77.1880457 603.595474,72.098724 C597.84347,67.0094023 590.252711,64.4647414 580.823197,64.4647414 C574.222537,64.4647414 568.470533,65.6899485 563.567185,68.1403627 C558.663838,70.5907768 554.561999,73.7951645 551.261669,77.7535259 C547.961339,81.7118872 545.462518,86.3299754 543.765205,91.6077905 C542.067893,96.8856056 541.219236,102.351914 541.219236,108.006716 C541.219236,112.907544 541.643564,117.619879 542.492221,122.143721 C543.340877,126.667562 544.755304,131.238527 546.735502,135.856615 C548.7157,140.474703 551.450259,145.234162 554.93918,150.13499 C558.4281,155.035818 562.907119,160.313633 568.376238,165.968435 L670.214993,273.409671 C675.306931,262.100067 679.361622,250.31923 682.379066,238.067159 C685.396511,225.815088 687.565299,213.091784 688.885431,199.897246 C689.262612,194.619431 691.007072,190.472577 694.118812,187.456682 C697.230552,184.440788 701.33239,182.932841 706.424328,182.932841 L761.869873,182.932841 C761.869873,210.452877 758.192362,236.135102 750.837341,259.979516 C743.48232,283.823931 733.015559,305.642042 719.437058,325.433848 L806,416.476158 L719.437058,416.476158 C715.099481,416.476158 711.23338,416.240542 707.838755,415.769308 C704.44413,415.298075 701.285243,414.496978 698.362093,413.366017 C695.438944,412.235057 692.657237,410.632863 690.016973,408.559436 C687.376709,406.486009 684.547855,403.847101 681.53041,400.642713 L663.708628,381.981867 C645.792551,394.422431 626.226308,404.035594 605.009901,410.821357 C583.793494,417.607119 561.209807,421 537.25884,421 C520.851485,421 504.774163,418.172599 489.026874,412.517797 C473.279585,406.862995 459.276756,398.804903 447.018388,388.343519 C434.760019,377.882136 424.859029,365.205955 417.315417,350.314976 C409.771806,335.423998 406,318.742333 406,300.26998 C406,287.829416 407.93305,276.048578 411.799151,264.927468 C415.665252,253.806358 421.087223,243.486344 428.065064,233.967428 C435.042904,224.448511 443.388025,215.777815 453.100424,207.955339 C462.812824,200.132863 473.421028,193.299978 484.925035,187.456682 C476.061292,173.696664 469.649222,160.219387 465.688826,147.024849 C461.72843,133.830311 459.748232,121.01276 459.748232,108.572196 C459.748232,93.8697112 462.435644,79.9683233 467.810467,66.8680322 C473.18529,53.7677412 481.011787,42.2696441 491.289958,32.3737408 C501.568128,22.4778375 514.203678,14.6082382 529.196605,8.76494291 C544.189533,2.92164764 561.398397,0 580.823197,0 Z M495.391796,293.201478 C495.391796,302.249161 496.759076,310.448623 499.493635,317.799866 C502.228194,325.151108 506.141443,331.465637 511.23338,336.743452 C516.325318,342.021267 522.407355,346.120998 529.479491,349.042646 C536.551627,351.964294 544.425271,353.425118 553.100424,353.425118 C565.735974,353.425118 577.475719,351.7758 588.319661,348.477166 C599.163602,345.178531 609.30033,340.51332 618.729844,334.481531 L523.963225,234.108798 C513.590759,242.591001 506.235738,251.827177 501.898161,261.817327 C497.560585,271.807477 495.391796,282.268861 495.391796,293.201478 Z" id="path-2"></path>
        <path d="M835,416 L835,4 L986.58156,4 C1015.05024,4 1039.27689,6.63921299 1059.26152,11.917639 C1079.24616,17.196065 1095.55437,24.6424159 1108.18617,34.2566918 C1120.81797,43.8709677 1130.00901,55.558911 1135.75931,69.3205216 C1141.5096,83.0821322 1144.38475,98.4461222 1144.38475,115.412491 C1144.38475,124.649737 1143.06501,133.557081 1140.42553,142.134523 C1137.78605,150.711965 1133.6383,158.770991 1127.98227,166.311599 C1122.32624,173.852208 1115.06767,180.685884 1106.20656,186.812629 C1097.34545,192.939373 1086.69326,198.264928 1074.25,202.789293 C1101.39894,209.387326 1121.47784,220.085564 1134.4867,234.884008 C1147.49557,249.682453 1154,268.67536 1154,291.862732 C1154,309.394647 1150.60638,325.701213 1143.81915,340.78243 C1137.03191,355.863647 1127.08673,369.012583 1113.9836,380.229238 C1100.88047,391.445893 1084.71365,400.211851 1065.48316,406.527111 C1046.25266,412.84237 1024.28842,416 999.590426,416 L835,416 Z M930.586879,241.246397 L930.586879,343.892931 L997.893617,343.892931 C1010.52541,343.892931 1020.84767,342.290551 1028.86037,339.085793 C1036.87308,335.881034 1043.14184,331.733699 1047.66667,326.643789 C1052.19149,321.553878 1055.3023,315.804164 1056.99911,309.394647 C1058.69592,302.985129 1059.54433,296.481354 1059.54433,289.883322 C1059.54433,282.342713 1058.55452,275.556166 1056.57491,269.523679 C1054.5953,263.491192 1051.20168,258.401281 1046.39406,254.253946 C1041.58644,250.106612 1035.2234,246.901853 1027.30496,244.639671 C1019.38652,242.377488 1009.39421,241.246397 997.328014,241.246397 L930.586879,241.246397 Z M930.586879,177.339739 L980.359929,177.339739 C990.917849,177.339739 1000.43883,176.585678 1008.92287,175.077557 C1017.40691,173.569435 1024.61835,170.930222 1030.55718,167.159918 C1036.49601,163.389613 1041.02083,158.205445 1044.13165,151.607412 C1047.24246,145.00938 1048.79787,136.714711 1048.79787,126.723404 C1048.79787,116.920613 1047.5724,108.76733 1045.12145,102.263555 C1042.67051,95.7597804 1038.89982,90.5284832 1033.8094,86.5696637 C1028.71897,82.6108442 1022.26167,79.783116 1014.4375,78.0864791 C1006.61333,76.3898421 997.328014,75.5415237 986.58156,75.5415237 L930.586879,75.5415237 L930.586879,177.339739 Z" id="path-3"></path>
        <path d="M0,0 L31.28,0 C34.6533333,0 37.4133333,0.766666667 39.56,2.3 C41.7066667,3.83333333 43.24,5.865 44.16,8.395 L76.59,98.095 C78.0466667,102.005 79.5225,106.26 81.0175,110.86 C82.5125,115.46 83.9116667,120.29 85.215,125.35 C86.2883333,120.29 87.5341667,115.46 88.9525,110.86 C90.3708333,106.26 91.77,102.005 93.15,98.095 L125.35,8.395 C126.116667,6.24833333 127.611667,4.3125 129.835,2.5875 C132.058333,0.8625 134.78,0 138,0 L169.51,0 L102.35,167.555 L67.16,167.555 L0,0 Z" id="path-4"></path>
        <path d="M219.42,46.46 C227.316667,46.46 234.5425,47.6866667 241.0975,50.14 C247.6525,52.5933333 253.2875,56.1583333 258.0025,60.835 C262.7175,65.5116667 266.3975,71.2425 269.0425,78.0275 C271.6875,84.8125 273.01,92.4983333 273.01,101.085 C273.01,103.768333 272.895,105.953333 272.665,107.64 C272.435,109.326667 272.013333,110.668333 271.4,111.665 C270.786667,112.661667 269.9625,113.351667 268.9275,113.735 C267.8925,114.118333 266.57,114.31 264.96,114.31 L196.19,114.31 C197.34,124.276667 200.368333,131.5025 205.275,135.9875 C210.181667,140.4725 216.506667,142.715 224.25,142.715 C228.39,142.715 231.955,142.216667 234.945,141.22 C237.935,140.223333 240.599167,139.111667 242.9375,137.885 C245.275833,136.658333 247.4225,135.546667 249.3775,134.55 C251.3325,133.553333 253.383333,133.055 255.53,133.055 C258.366667,133.055 260.513333,134.09 261.97,136.16 L272.32,148.925 C268.64,153.141667 264.6725,156.5725 260.4175,159.2175 C256.1625,161.8625 251.7925,163.9325 247.3075,165.4275 C242.8225,166.9225 238.3375,167.9575 233.8525,168.5325 C229.3675,169.1075 225.093333,169.395 221.03,169.395 C212.673333,169.395 204.834167,168.034167 197.5125,165.3125 C190.190833,162.590833 183.789167,158.546667 178.3075,153.18 C172.825833,147.813333 168.494167,141.143333 165.3125,133.17 C162.130833,125.196667 160.54,115.92 160.54,105.34 C160.54,97.3666667 161.900833,89.815 164.6225,82.685 C167.344167,75.555 171.254167,69.3066667 176.3525,63.94 C181.450833,58.5733333 187.6225,54.3183333 194.8675,51.175 C202.1125,48.0316667 210.296667,46.46 219.42,46.46 Z M220.11,71.07 C213.286667,71.07 207.958333,73.0058333 204.125,76.8775 C200.291667,80.7491667 197.761667,86.3266667 196.535,93.61 L241.04,93.61 C241.04,90.7733333 240.675833,88.0133333 239.9475,85.33 C239.219167,82.6466667 238.030833,80.2508333 236.3825,78.1425 C234.734167,76.0341667 232.568333,74.3283333 229.885,73.025 C227.201667,71.7216667 223.943333,71.07 220.11,71.07 Z" id="path-5"></path>
        <path d="M293.48,167.555 L293.48,48.3 L315.56,48.3 C317.783333,48.3 319.6425,48.7983333 321.1375,49.795 C322.6325,50.7916667 323.686667,52.2866667 324.3,54.28 L326.37,61.18 C328.67,59.0333333 331.046667,57.04 333.5,55.2 C335.953333,53.36 338.579167,51.8075 341.3775,50.5425 C344.175833,49.2775 347.204167,48.2808333 350.4625,47.5525 C353.720833,46.8241667 357.266667,46.46 361.1,46.46 C367.616667,46.46 373.385833,47.5908333 378.4075,49.8525 C383.429167,52.1141667 387.665,55.2575 391.115,59.2825 C394.565,63.3075 397.171667,68.0991667 398.935,73.6575 C400.698333,79.2158333 401.58,85.2533333 401.58,91.77 L401.58,167.555 L365.93,167.555 L365.93,91.77 C365.93,85.9433333 364.588333,81.4008333 361.905,78.1425 C359.221667,74.8841667 355.273333,73.255 350.06,73.255 C346.15,73.255 342.47,74.0983333 339.02,75.785 C335.57,77.4716667 332.273333,79.7333333 329.13,82.57 L329.13,167.555 L293.48,167.555 Z" id="path-6"></path>
        <path d="M468.74,169.395 C463.066667,169.395 458.064167,168.570833 453.7325,166.9225 C449.400833,165.274167 445.759167,162.935833 442.8075,159.9075 C439.855833,156.879167 437.613333,153.218333 436.08,148.925 C434.546667,144.631667 433.78,139.84 433.78,134.55 L433.78,72.91 L423.66,72.91 C421.82,72.91 420.248333,72.3158333 418.945,71.1275 C417.641667,69.9391667 416.99,68.195 416.99,65.895 L416.99,51.98 L435.965,48.3 L442.98,19.205 C443.9,15.525 446.506667,13.685 450.8,13.685 L469.43,13.685 L469.43,48.53 L498.41,48.53 L498.41,72.91 L469.43,72.91 L469.43,132.135 C469.43,134.895 470.100833,137.175833 471.4425,138.9775 C472.784167,140.779167 474.72,141.68 477.25,141.68 C478.553333,141.68 479.645833,141.545833 480.5275,141.2775 C481.409167,141.009167 482.175833,140.7025 482.8275,140.3575 C483.479167,140.0125 484.0925,139.705833 484.6675,139.4375 C485.2425,139.169167 485.913333,139.035 486.68,139.035 C487.753333,139.035 488.615833,139.284167 489.2675,139.7825 C489.919167,140.280833 490.59,141.066667 491.28,142.14 L502.09,159.045 C497.49,162.495 492.315,165.0825 486.565,166.8075 C480.815,168.5325 474.873333,169.395 468.74,169.395 Z" id="path-7"></path>
        <path d="M552.23,48.3 L552.23,123.97 C552.23,129.873333 553.571667,134.435 556.255,137.655 C558.938333,140.875 562.886667,142.485 568.1,142.485 C572.01,142.485 575.670833,141.68 579.0825,140.07 C582.494167,138.46 585.81,136.198333 589.03,133.285 L589.03,48.3 L624.68,48.3 L624.68,167.555 L602.6,167.555 C598.153333,167.555 595.24,165.561667 593.86,161.575 L591.675,154.675 C589.375,156.898333 586.998333,158.910833 584.545,160.7125 C582.091667,162.514167 579.465833,164.0475 576.6675,165.3125 C573.869167,166.5775 570.86,167.574167 567.64,168.3025 C564.42,169.030833 560.893333,169.395 557.06,169.395 C550.543333,169.395 544.774167,168.264167 539.7525,166.0025 C534.730833,163.740833 530.495,160.578333 527.045,156.515 C523.595,152.451667 520.988333,147.66 519.225,142.14 C517.461667,136.62 516.58,130.563333 516.58,123.97 L516.58,48.3 L552.23,48.3 Z" id="path-8"></path>
        <path d="M652.28,167.555 L652.28,48.3 L673.44,48.3 C675.203333,48.3 676.679167,48.4533333 677.8675,48.76 C679.055833,49.0666667 680.0525,49.5458333 680.8575,50.1975 C681.6625,50.8491667 682.275833,51.7116667 682.6975,52.785 C683.119167,53.8583333 683.483333,55.1616667 683.79,56.695 L685.745,67.85 C690.115,61.1033333 695.021667,55.775 700.465,51.865 C705.908333,47.955 711.85,46 718.29,46 C723.733333,46 728.103333,47.3033333 731.4,49.91 L726.8,76.13 C726.493333,77.74 725.88,78.8708333 724.96,79.5225 C724.04,80.1741667 722.813333,80.5 721.28,80.5 C719.976667,80.5 718.443333,80.3275 716.68,79.9825 C714.916667,79.6375 712.693333,79.465 710.01,79.465 C700.656667,79.465 693.296667,84.4483333 687.93,94.415 L687.93,167.555 L652.28,167.555 Z" id="path-9"></path>
        <path d="M798.33,46.46 C806.226667,46.46 813.4525,47.6866667 820.0075,50.14 C826.5625,52.5933333 832.1975,56.1583333 836.9125,60.835 C841.6275,65.5116667 845.3075,71.2425 847.9525,78.0275 C850.5975,84.8125 851.92,92.4983333 851.92,101.085 C851.92,103.768333 851.805,105.953333 851.575,107.64 C851.345,109.326667 850.923333,110.668333 850.31,111.665 C849.696667,112.661667 848.8725,113.351667 847.8375,113.735 C846.8025,114.118333 845.48,114.31 843.87,114.31 L775.1,114.31 C776.25,124.276667 779.278333,131.5025 784.185,135.9875 C789.091667,140.4725 795.416667,142.715 803.16,142.715 C807.3,142.715 810.865,142.216667 813.855,141.22 C816.845,140.223333 819.509167,139.111667 821.8475,137.885 C824.185833,136.658333 826.3325,135.546667 828.2875,134.55 C830.2425,133.553333 832.293333,133.055 834.44,133.055 C837.276667,133.055 839.423333,134.09 840.88,136.16 L851.23,148.925 C847.55,153.141667 843.5825,156.5725 839.3275,159.2175 C835.0725,161.8625 830.7025,163.9325 826.2175,165.4275 C821.7325,166.9225 817.2475,167.9575 812.7625,168.5325 C808.2775,169.1075 804.003333,169.395 799.94,169.395 C791.583333,169.395 783.744167,168.034167 776.4225,165.3125 C769.100833,162.590833 762.699167,158.546667 757.2175,153.18 C751.735833,147.813333 747.404167,141.143333 744.2225,133.17 C741.040833,125.196667 739.45,115.92 739.45,105.34 C739.45,97.3666667 740.810833,89.815 743.5325,82.685 C746.254167,75.555 750.164167,69.3066667 755.2625,63.94 C760.360833,58.5733333 766.5325,54.3183333 773.7775,51.175 C781.0225,48.0316667 789.206667,46.46 798.33,46.46 Z M799.02,71.07 C792.196667,71.07 786.868333,73.0058333 783.035,76.8775 C779.201667,80.7491667 776.671667,86.3266667 775.445,93.61 L819.95,93.61 C819.95,90.7733333 819.585833,88.0133333 818.8575,85.33 C818.129167,82.6466667 816.940833,80.2508333 815.2925,78.1425 C813.644167,76.0341667 811.478333,74.3283333 808.795,73.025 C806.111667,71.7216667 802.853333,71.07 799.02,71.07 Z" id="path-10"></path>
        <path d="M945.3,74.405 C944.38,75.8616667 943.4025,76.8966667 942.3675,77.51 C941.3325,78.1233333 940.01,78.43 938.4,78.43 C936.713333,78.43 935.026667,78.0658333 933.34,77.3375 C931.653333,76.6091667 929.8325,75.8233333 927.8775,74.98 C925.9225,74.1366667 923.718333,73.3508333 921.265,72.6225 C918.811667,71.8941667 916.013333,71.53 912.87,71.53 C908.346667,71.53 904.8775,72.3925 902.4625,74.1175 C900.0475,75.8425 898.84,78.2383333 898.84,81.305 C898.84,83.5283333 899.625833,85.3683333 901.1975,86.825 C902.769167,88.2816667 904.858333,89.5658333 907.465,90.6775 C910.071667,91.7891667 913.023333,92.8433333 916.32,93.84 C919.616667,94.8366667 922.99,95.9483333 926.44,97.175 C929.89,98.4016667 933.263333,99.8391667 936.56,101.4875 C939.856667,103.135833 942.808333,105.1675 945.415,107.5825 C948.021667,109.9975 950.110833,112.93 951.6825,116.38 C953.254167,119.83 954.04,123.97 954.04,128.8 C954.04,134.703333 952.966667,140.146667 950.82,145.13 C948.673333,150.113333 945.4725,154.406667 941.2175,158.01 C936.9625,161.613333 931.710833,164.411667 925.4625,166.405 C919.214167,168.398333 912.026667,169.395 903.9,169.395 C899.836667,169.395 895.773333,169.011667 891.71,168.245 C887.646667,167.478333 883.7175,166.443333 879.9225,165.14 C876.1275,163.836667 872.62,162.284167 869.4,160.4825 C866.18,158.680833 863.42,156.745 861.12,154.675 L869.4,141.565 C870.396667,140.031667 871.585,138.824167 872.965,137.9425 C874.345,137.060833 876.146667,136.62 878.37,136.62 C880.44,136.62 882.299167,137.08 883.9475,138 C885.595833,138.92 887.378333,139.916667 889.295,140.99 C891.211667,142.063333 893.454167,143.06 896.0225,143.98 C898.590833,144.9 901.83,145.36 905.74,145.36 C908.5,145.36 910.838333,145.0725 912.755,144.4975 C914.671667,143.9225 916.205,143.136667 917.355,142.14 C918.505,141.143333 919.348333,140.031667 919.885,138.805 C920.421667,137.578333 920.69,136.313333 920.69,135.01 C920.69,132.633333 919.885,130.678333 918.275,129.145 C916.665,127.611667 914.556667,126.289167 911.95,125.1775 C909.343333,124.065833 906.3725,123.030833 903.0375,122.0725 C899.7025,121.114167 896.31,120.021667 892.86,118.795 C889.41,117.568333 886.0175,116.0925 882.6825,114.3675 C879.3475,112.6425 876.376667,110.4575 873.77,107.8125 C871.163333,105.1675 869.055,101.928333 867.445,98.095 C865.835,94.2616667 865.03,89.6233333 865.03,84.18 C865.03,79.12 866.0075,74.3091667 867.9625,69.7475 C869.9175,65.1858333 872.85,61.18 876.76,57.73 C880.67,54.28 885.576667,51.5391667 891.48,49.5075 C897.383333,47.4758333 904.283333,46.46 912.18,46.46 C916.473333,46.46 920.6325,46.8433333 924.6575,47.61 C928.6825,48.3766667 932.458333,49.45 935.985,50.83 C939.511667,52.21 942.731667,53.8391667 945.645,55.7175 C948.558333,57.5958333 951.126667,59.6466667 953.35,61.87 L945.3,74.405 Z" id="path-11"></path>
    </defs>
    <g id="Page-1" stroke="none" stroke-width="1" fill="none" fill-rule="evenodd">
        <g id="G&amp;B-Ventures" fill-rule="nonzero">
            <g id="Group-14">
                <g id="Path">
                    <use fill="#FFFFFF" xlink:href="#path-1"></use>
                    <use fill="#2F363E" xlink:href="#path-1"></use>
                </g>
                <g id="Shape">
                    <use fill="#FFFFFF" xlink:href="#path-2"></use>
                    <use fill="#009CD1" xlink:href="#path-2"></use>
                </g>
                <g id="Shape">
                    <use fill="#FFFFFF" xlink:href="#path-3"></use>
                    <use fill="#2F363E" xlink:href="#path-3"></use>
                </g>
            </g>
            <g id="Group-15" transform="translate(100, 516)">
                <g id="Path">
                    <use fill="#FFFFFF" xlink:href="#path-4"></use>
                    <use fill="#30363D" xlink:href="#path-4"></use>
                </g>
                <g id="Shape">
                    <use fill="#FFFFFF" xlink:href="#path-5"></use>
                    <use fill="#30363D" xlink:href="#path-5"></use>
                </g>
                <g id="Path">
                    <use fill="#FFFFFF" xlink:href="#path-6"></use>
                    <use fill="#30363D" xlink:href="#path-6"></use>
                </g>
                <g id="Path">
                    <use fill="#FFFFFF" xlink:href="#path-7"></use>
                    <use fill="#30363D" xlink:href="#path-7"></use>
                </g>
                <g id="Path">
                    <use fill="#FFFFFF" xlink:href="#path-8"></use>
                    <use fill="#30363D" xlink:href="#path-8"></use>
                </g>
                <g id="Path">
                    <use fill="#FFFFFF" xlink:href="#path-9"></use>
                    <use fill="#30363D" xlink:href="#path-9"></use>
                </g>
                <g id="Shape">
                    <use fill="#FFFFFF" xlink:href="#path-10"></use>
                    <use fill="#30363D" xlink:href="#path-10"></use>
                </g>
                <g id="Path">
                    <use fill="#FFFFFF" xlink:href="#path-11"></use>
                    <use fill="#30363D" xlink:href="#path-11"></use>
                </g>
            </g>
        </g>
    </g>
</svg>