<?xml version="1.0" encoding="UTF-8"?>
<svg width="1030px" height="566px" viewBox="0 0 1030 566" version="1.1" xmlns="http://www.w3.org/2000/svg" xmlns:xlink="http://www.w3.org/1999/xlink">
    <title>Group 17</title>
    <defs>
        <path d="M0,0 L27.8643148,0 C30.8692899,0 33.3279059,0.681766186 35.2401628,2.04529856 C37.1524197,3.40883093 38.5183175,5.21551132 39.3378562,7.46533974 L68.2265943,87.2319835 C69.5241972,90.7089911 70.8388738,94.4927934 72.1706242,98.5833905 C73.5023745,102.673988 74.7487562,106.969115 75.9097693,111.468771 C76.8658978,106.969115 77.9756897,102.673988 79.2391452,98.5833905 C80.5026006,94.4927934 81.7489824,90.7089911 82.9782904,87.2319835 L111.662144,7.46533974 C112.345093,5.55639442 113.676843,3.8349348 115.657395,2.30096088 C117.637947,0.76698696 120.062415,0 122.930801,0 L151,0 L91.1736771,149 L59.8263229,149 L0,0 Z" id="path-1"></path>
        <path d="M195.351738,41 C202.37287,41 208.797546,42.097599 214.625767,44.292797 C220.453988,46.487995 225.464213,49.6778921 229.656442,53.8624883 C233.848671,58.0470845 237.120654,63.1749298 239.472393,69.2460243 C241.824131,75.3171188 243,82.1942626 243,89.8774556 C243,92.2784534 242.897751,94.2335516 242.693252,95.7427502 C242.488753,97.2519489 242.113838,98.4524478 241.568507,99.344247 C241.023177,100.236046 240.290389,100.853446 239.370143,101.196445 C238.449898,101.539445 237.274029,101.710945 235.842536,101.710945 L174.697342,101.710945 C175.719836,110.628937 178.412406,117.094481 182.775051,121.107577 C187.137696,125.120674 192.761418,127.127222 199.646217,127.127222 C203.327198,127.127222 206.496933,126.681322 209.155419,125.789523 C211.813906,124.897724 214.182686,123.903025 216.261759,122.805426 C218.340832,121.707827 220.249489,120.713128 221.98773,119.821328 C223.725971,118.929529 225.549421,118.48363 227.458078,118.48363 C229.980232,118.48363 231.888889,119.409729 233.184049,121.261927 L242.386503,132.683817 C239.114519,136.456813 235.586912,139.52666 231.803681,141.893358 C228.02045,144.260056 224.134969,146.112254 220.147239,147.449953 C216.159509,148.787652 212.171779,149.713751 208.184049,150.228251 C204.196319,150.74275 200.396046,151 196.783231,151 C189.353102,151 182.383095,149.782351 175.873211,147.347053 C169.363327,144.911756 163.671438,141.293109 158.797546,136.491113 C153.923654,131.689118 150.072256,125.720923 147.243354,118.586529 C144.414451,111.452136 143,103.151543 143,93.6847521 C143,86.5503586 144.209952,79.7932647 146.629857,73.4134705 C149.049761,67.0336763 152.526244,61.4427814 157.059305,56.6407858 C161.592365,51.8387901 167.079755,48.0314936 173.521472,45.2188962 C179.96319,42.4062987 187.239945,41 195.351738,41 Z M195.965235,63.02058 C189.898432,63.02058 185.160873,64.7527284 181.752556,68.2170253 C178.34424,71.6813221 176.094751,76.6719676 175.00409,83.1889616 L214.574642,83.1889616 C214.574642,80.650764 214.250852,78.1811662 213.603272,75.7801684 C212.955692,73.3791706 211.899114,71.2354225 210.433538,69.3489242 C208.967962,67.4624259 207.042263,65.9360773 204.656442,64.7698784 C202.27062,63.6036795 199.373551,63.02058 195.965235,63.02058 Z" id="path-2"></path>
        <path d="M262,149 L262,42.6410256 L281.608511,42.6410256 C283.582979,42.6410256 285.234043,43.0854701 286.561702,43.974359 C287.889362,44.8632479 288.825532,46.1965812 289.370213,47.974359 L291.208511,54.1282051 C293.251064,52.2136752 295.361702,50.4358974 297.540426,48.7948718 C299.719149,47.1538462 302.051064,45.7692308 304.53617,44.6410256 C307.021277,43.5128205 309.710638,42.6239316 312.604255,41.974359 C315.497872,41.3247863 318.646809,41 322.051064,41 C327.838298,41 332.961702,42.008547 337.421277,44.025641 C341.880851,46.042735 345.642553,48.8461538 348.706383,52.4358974 C351.770213,56.025641 354.085106,60.2991453 355.651064,65.2564103 C357.217021,70.2136752 358,75.5982906 358,81.4102564 L358,149 L326.340426,149 L326.340426,81.4102564 C326.340426,76.2136752 325.148936,72.1623932 322.765957,69.2564103 C320.382979,66.3504274 316.876596,64.8974359 312.246809,64.8974359 C308.774468,64.8974359 305.506383,65.6495726 302.442553,67.1538462 C299.378723,68.6581197 296.451064,70.6752137 293.659574,73.2051282 L293.659574,149 L262,149 Z" id="path-3"></path>
        <path d="M418.216216,151 C413.14955,151 408.681982,150.264279 404.813514,148.792836 C400.945045,147.321393 397.692793,145.233998 395.056757,142.53065 C392.420721,139.827302 390.418018,136.55933 389.048649,132.726736 C387.679279,128.894141 386.994595,124.616691 386.994595,119.894387 L386.994595,64.8692762 L377.956757,64.8692762 C376.313514,64.8692762 374.90991,64.3388725 373.745946,63.278065 C372.581982,62.2172575 372,60.6602659 372,58.6070901 L372,46.1853767 L388.945946,42.9002954 L395.210811,16.9276219 C396.032432,13.6425406 398.36036,12 402.194595,12 L418.832432,12 L418.832432,43.105613 L444.713514,43.105613 L444.713514,64.8692762 L418.832432,64.8692762 L418.832432,117.738552 C418.832432,120.202363 419.431532,122.238429 420.62973,123.84675 C421.827928,125.455071 423.556757,126.259232 425.816216,126.259232 C426.98018,126.259232 427.955856,126.139463 428.743243,125.899926 C429.530631,125.660389 430.215315,125.386632 430.797297,125.078656 C431.379279,124.770679 431.927027,124.496923 432.440541,124.257386 C432.954054,124.017848 433.553153,123.89808 434.237838,123.89808 C435.196396,123.89808 435.966667,124.120507 436.548649,124.565362 C437.130631,125.010217 437.72973,125.711718 438.345946,126.669867 L448,141.760709 C443.891892,144.840473 439.27027,147.150295 434.135135,148.690177 C429,150.230059 423.693694,151 418.216216,151 Z" id="path-4"></path>
        <path d="M492.659574,43 L492.659574,110.487179 C492.659574,115.752137 493.851064,119.820513 496.234043,122.692308 C498.617021,125.564103 502.123404,127 506.753191,127 C510.225532,127 513.476596,126.282051 516.506383,124.846154 C519.53617,123.410256 522.480851,121.393162 525.340426,118.794872 L525.340426,43 L557,43 L557,149.358974 L537.391489,149.358974 C533.442553,149.358974 530.855319,147.581197 529.629787,144.025641 L527.689362,137.871795 C525.646809,139.854701 523.53617,141.649573 521.357447,143.25641 C519.178723,144.863248 516.846809,146.230769 514.361702,147.358974 C511.876596,148.487179 509.204255,149.376068 506.344681,150.025641 C503.485106,150.675214 500.353191,151 496.948936,151 C491.161702,151 486.038298,149.991453 481.578723,147.974359 C477.119149,145.957265 473.357447,143.136752 470.293617,139.512821 C467.229787,135.888889 464.914894,131.615385 463.348936,126.692308 C461.782979,121.769231 461,116.367521 461,110.487179 L461,43 L492.659574,43 Z" id="path-5"></path>
        <path d="M581,149 L581,43.0435194 L599.988372,43.0435194 C601.570736,43.0435194 602.895107,43.179754 603.961483,43.4522233 C605.027859,43.7246925 605.922238,44.1504257 606.644622,44.7294229 C607.367006,45.3084201 607.917393,46.0747398 608.295785,47.0283822 C608.674176,47.9820246 609.000969,49.1400189 609.276163,50.5023652 L611.030523,60.4134342 C614.952035,54.4191107 619.355136,49.6849574 624.239826,46.2109745 C629.124516,42.7369915 634.456395,41 640.235465,41 C645.120155,41 649.041667,42.1579943 652,44.473983 L647.872093,67.7701041 C647.596899,69.2005676 647.046512,70.205298 646.22093,70.7842952 C645.395349,71.3632923 644.294574,71.6527909 642.918605,71.6527909 C641.749031,71.6527909 640.373062,71.499527 638.790698,71.1929991 C637.208333,70.8864711 635.213178,70.7332072 632.805233,70.7332072 C624.411822,70.7332072 617.807171,75.1608325 612.991279,84.0160833 L612.991279,149 L581,149 Z" id="path-6"></path>
        <path d="M711.351738,41 C718.37287,41 724.797546,42.097599 730.625767,44.292797 C736.453988,46.487995 741.464213,49.6778921 745.656442,53.8624883 C749.848671,58.0470845 753.120654,63.1749298 755.472393,69.2460243 C757.824131,75.3171188 759,82.1942626 759,89.8774556 C759,92.2784534 758.897751,94.2335516 758.693252,95.7427502 C758.488753,97.2519489 758.113838,98.4524478 757.568507,99.344247 C757.023177,100.236046 756.290389,100.853446 755.370143,101.196445 C754.449898,101.539445 753.274029,101.710945 751.842536,101.710945 L690.697342,101.710945 C691.719836,110.628937 694.412406,117.094481 698.775051,121.107577 C703.137696,125.120674 708.761418,127.127222 715.646217,127.127222 C719.327198,127.127222 722.496933,126.681322 725.155419,125.789523 C727.813906,124.897724 730.182686,123.903025 732.261759,122.805426 C734.340832,121.707827 736.249489,120.713128 737.98773,119.821328 C739.725971,118.929529 741.549421,118.48363 743.458078,118.48363 C745.980232,118.48363 747.888889,119.409729 749.184049,121.261927 L758.386503,132.683817 C755.114519,136.456813 751.586912,139.52666 747.803681,141.893358 C744.02045,144.260056 740.134969,146.112254 736.147239,147.449953 C732.159509,148.787652 728.171779,149.713751 724.184049,150.228251 C720.196319,150.74275 716.396046,151 712.783231,151 C705.353102,151 698.383095,149.782351 691.873211,147.347053 C685.363327,144.911756 679.671438,141.293109 674.797546,136.491113 C669.923654,131.689118 666.072256,125.720923 663.243354,118.586529 C660.414451,111.452136 659,103.151543 659,93.6847521 C659,86.5503586 660.209952,79.7932647 662.629857,73.4134705 C665.049761,67.0336763 668.526244,61.4427814 673.059305,56.6407858 C677.592365,51.8387901 683.079755,48.0314936 689.521472,45.2188962 C695.96319,42.4062987 703.239945,41 711.351738,41 Z M711.965235,63.02058 C705.898432,63.02058 701.160873,64.7527284 697.752556,68.2170253 C694.34424,71.6813221 692.094751,76.6719676 691.00409,83.1889616 L730.574642,83.1889616 C730.574642,80.650764 730.250852,78.1811662 729.603272,75.7801684 C728.955692,73.3791706 727.899114,71.2354225 726.433538,69.3489242 C724.967962,67.4624259 723.042263,65.9360773 720.656442,64.7698784 C718.27062,63.6036795 715.373551,63.02058 711.965235,63.02058 Z" id="path-7"></path>
        <path d="M843.193069,66.0046773 C842.371287,67.3080761 841.498144,68.2341752 840.573639,68.7829747 C839.649134,69.3317742 838.467822,69.606174 837.029703,69.606174 C835.523102,69.606174 834.016502,69.2803243 832.509901,68.6286249 C831.0033,67.9769255 829.376856,67.2737761 827.630569,66.5191768 C825.884282,65.7645775 823.915429,65.0614281 821.72401,64.4097287 C819.532591,63.7580293 817.033003,63.4321796 814.225248,63.4321796 C810.184818,63.4321796 807.086015,64.2039289 804.928837,65.7474275 C802.771658,67.2909261 801.693069,69.4346742 801.693069,72.1786717 C801.693069,74.1680698 802.395008,75.8144684 803.798886,77.1178672 C805.202764,78.421266 807.068894,79.5703149 809.397277,80.565014 C811.72566,81.5597131 814.362211,82.5029623 817.306931,83.3947615 C820.25165,84.2865606 823.264851,85.2812597 826.346535,86.3788587 C829.428218,87.4764577 832.441419,88.7627066 835.386139,90.2376052 C838.330858,91.7125039 840.967409,93.5304022 843.295792,95.6913003 C845.624175,97.8521983 847.490305,100.476146 848.894183,103.563143 C850.298061,106.65014 851,110.354537 851,114.676333 C851,119.958528 850.041254,124.829124 848.123762,129.28812 C846.206271,133.747116 843.347153,137.588712 839.546411,140.812909 C835.745668,144.037106 831.054662,146.541004 825.473391,148.324602 C819.89212,150.108201 813.471947,151 806.212871,151 C802.583333,151 798.953795,150.657 795.324257,149.971001 C791.694719,149.285002 788.185025,148.358902 784.795173,147.192703 C781.405322,146.026505 778.272277,144.637356 775.39604,143.025257 C772.519802,141.413159 770.054455,139.68101 768,137.828812 L775.39604,126.098223 C776.286304,124.726224 777.347772,123.645775 778.580446,122.856876 C779.813119,122.067976 781.422442,121.673527 783.408416,121.673527 C785.257426,121.673527 786.918111,122.085126 788.39047,122.908326 C789.86283,123.731525 791.455033,124.623324 793.167079,125.583723 C794.879125,126.544122 796.882219,127.435921 799.176361,128.259121 C801.470503,129.08232 804.363861,129.49392 807.856436,129.49392 C810.321782,129.49392 812.410479,129.23667 814.122525,128.72217 C815.834571,128.207671 817.204208,127.504521 818.231436,126.612722 C819.258663,125.720923 820.011964,124.726224 820.491337,123.628625 C820.97071,122.531026 821.210396,121.399127 821.210396,120.232928 C821.210396,118.10633 820.491337,116.357031 819.053218,114.985033 C817.615099,113.613034 815.731848,112.429685 813.403465,111.434986 C811.075083,110.440287 808.421411,109.514188 805.44245,108.656688 C802.46349,107.799189 799.433168,106.82164 796.351485,105.724041 C793.269802,104.626442 790.23948,103.305893 787.26052,101.762395 C784.281559,100.218896 781.627888,98.2637979 779.299505,95.8971001 C776.971122,93.5304022 775.087871,90.6320549 773.649752,87.202058 C772.211634,83.7720611 771.492574,79.6217649 771.492574,74.7511693 C771.492574,70.2235734 772.365718,65.9189273 774.112005,61.8372311 C775.858292,57.7555348 778.477723,54.171188 781.970297,51.0841908 C785.462871,47.9971936 789.84571,45.5447459 795.118812,43.7268475 C800.391914,41.9089492 806.555281,41 813.608911,41 C817.443894,41 821.159035,41.3429997 824.754332,42.0289991 C828.349629,42.7149984 831.72236,43.6753976 834.872525,44.9101964 C838.02269,46.1449953 840.898927,47.602744 843.501238,49.2834425 C846.103548,50.9641409 848.39769,52.7991893 850.383663,54.7885875 L843.193069,66.0046773 Z" id="path-8"></path>
    </defs>
    <g id="Page-1" stroke="none" stroke-width="1" fill="none" fill-rule="evenodd">
        <g id="Group-17" transform="translate(0.943, 0.042)" fill-rule="nonzero">
            <g id="G&amp;B" transform="translate(0, -0)">
                <path d="M170.332,0 C190.818667,0 207.647,2.78033333 220.817,8.341 C233.987,13.9016667 245.547333,20.633 255.498,28.535 C258.717333,31.169 261.644,32.486 264.278,32.486 C269.838667,32.486 273.497,23.706 275.253,6.146 L285.35,6.146 C284.764667,17.8526667 284.325667,32.1201667 284.033,48.9485 C283.740333,65.7768333 283.594,88.0926667 283.594,115.896 L273.497,115.896 C271.448333,94.824 267.863167,77.1908333 262.7415,62.9965 C257.619833,48.8021667 247.742333,36.7296667 233.109,26.779 C226.963,22.6816667 219.792667,19.4623333 211.598,17.121 C203.403333,14.7796667 195.501333,13.609 187.892,13.609 C170.917333,13.609 156.869333,18.2185 145.748,27.4375 C134.626667,36.6565 125.7735,48.6558333 119.1885,63.4355 C112.6035,78.2151667 107.920833,94.3118333 105.1405,111.7255 C102.360167,129.139167 100.97,146.040667 100.97,162.43 C100.97,215.11 107.408667,253.595667 120.286,277.887 C133.163333,302.178333 150.284333,314.324 171.649,314.324 C176.331667,314.324 180.429,313.885 183.941,313.007 C187.453,312.129 190.526,310.812 193.16,309.056 C196.379333,306.714667 198.720667,303.788 200.184,300.276 C201.647333,296.764 202.379,292.374 202.379,287.106 L202.379,243.206 C202.379,228.865333 201.2815,218.183 199.0865,211.159 C196.8915,204.135 192.574667,199.306 186.136,196.672 C179.697333,194.038 170.332,192.574667 158.04,192.282 L158.04,183.502 C164.771333,183.794667 172.966,184.014167 182.624,184.1605 C192.282,184.306833 202.379,184.453167 212.915,184.5995 C223.451,184.745833 233.109,184.819 241.889,184.819 C255.937,184.819 268.8875,184.672667 280.7405,184.38 C292.5935,184.087333 302.178333,183.794667 309.495,183.502 L309.495,192.282 C304.519667,192.574667 300.715,193.599 298.081,195.355 C295.447,197.111 293.691,200.623 292.813,205.891 C291.935,211.159 291.496,219.207333 291.496,230.036 L291.496,316.958 L282.716,316.958 C282.423333,311.982667 281.252667,306.568333 279.204,300.715 C277.155333,294.861667 273.789667,291.935 269.107,291.935 C266.765667,291.935 263.473167,292.520333 259.2295,293.691 C254.985833,294.861667 248.327667,297.642 239.255,302.032 C227.841,307.592667 215.7685,312.494833 203.0375,316.7385 C190.3065,320.982167 177.648667,323.104 165.064,323.104 C128.480667,323.104 97.897,316.811667 73.313,304.227 C48.729,291.642333 30.3641667,273.497 18.2185,249.791 C6.07283333,226.085 -2.27373675e-13,197.55 -2.27373675e-13,164.186 C-2.27373675e-13,131.407333 7.2435,102.726 21.7305,78.142 C36.2175,53.558 56.2651667,34.3883333 81.8735,20.633 C107.481833,6.87766667 136.968,0 170.332,0 Z" id="Path" fill="#FFFFFF"></path>
                <path d="M467.974,3.073 C479.388,3.073 488.460667,3.58516667 495.192,4.6095 C501.923333,5.63383333 508.069333,7.17033333 513.63,9.219 C518.605333,10.6823333 523.653833,13.0236667 528.7755,16.243 C533.897167,19.4623333 538.214,23.706 541.726,28.974 C545.238,34.242 546.994,40.6806667 546.994,48.29 C546.994,58.2406667 543.116167,66.289 535.3605,72.435 C527.604833,78.581 518.166333,81.654 507.045,81.654 C496.509,81.654 487.582667,79.1663333 480.266,74.191 C472.949333,69.2156667 469.291,61.46 469.291,50.924 C469.291,42.7293333 472.1445,35.1931667 477.8515,28.3155 C483.5585,21.4378333 491.094667,16.8283333 500.46,14.487 C497.533333,13.3163333 493.6555,12.4383333 488.8265,11.853 C483.9975,11.2676667 479.241667,10.975 474.559,10.975 C459.047667,10.975 445.585,15.9503333 434.171,25.901 C422.757,35.8516667 417.05,51.2166667 417.05,71.996 C417.05,77.5566667 417.928,83.9221667 419.684,91.0925 C421.44,98.2628333 425.098333,105.652667 430.659,113.262 C435.634333,111.798667 439.878,110.774333 443.39,110.189 C446.902,109.603667 450.267667,109.311 453.487,109.311 C458.755,109.311 462.632833,110.481667 465.1205,112.823 C467.608167,115.164333 468.852,118.237333 468.852,122.042 C468.852,124.968667 467.608167,127.31 465.1205,129.066 C462.632833,130.822 459.779333,131.7 456.56,131.7 C451.877333,131.7 447.194667,130.236667 442.512,127.31 C437.829333,124.383333 434.024667,121.749333 431.098,119.408 C419.391333,127.602667 409.879667,137.114333 402.563,147.943 C395.246333,158.771667 391.588,172.673333 391.588,189.648 C391.588,208.378667 396.782833,223.524167 407.1725,235.0845 C417.562167,246.644833 432.854,255.132167 453.048,260.5465 C473.242,265.960833 497.679667,268.668 526.361,268.668 C540.409,268.668 554.749667,267.204667 569.383,264.278 C584.016333,261.351333 597.479,256.815 609.771,250.669 C622.063,244.523 632.013667,236.8405 639.623,227.6215 C647.232333,218.4025 651.037,207.500667 651.037,194.916 C651.037,190.818667 650.671167,185.697 649.9395,179.551 C649.207833,173.405 647.086,167.112667 643.574,160.674 C640.062,154.235333 634.062333,148.674667 625.575,143.992 L626.892,140.48 C638.891333,144.284667 648.768833,152.918333 656.5245,166.381 C664.280167,179.843667 668.158,195.647667 668.158,213.793 C668.158,236.035667 661.134,255.351667 647.086,271.741 C633.038,288.130333 613.722,300.788167 589.138,309.7145 C564.554,318.640833 536.458,323.104 504.85,323.104 C477.046667,323.104 452.3895,320.616333 430.8785,315.641 C409.3675,310.665667 391.149,303.422167 376.223,293.9105 C361.297,284.398833 349.956167,272.911667 342.2005,259.449 C334.444833,245.986333 330.567,230.767667 330.567,213.793 C330.567,197.111 334.152167,182.916667 341.3225,171.21 C348.492833,159.503333 357.346,149.845333 367.882,142.236 C378.418,134.626667 388.954,128.700167 399.49,124.4565 C410.026,120.212833 418.513333,117.359333 424.952,115.896 C416.172,112.676667 407.684667,108.798833 399.49,104.2625 C391.295333,99.7261667 384.637167,93.946 379.5155,86.922 C374.393833,79.898 371.833,71.4106667 371.833,61.46 C371.833,50.3386667 374.832833,41.0465 380.8325,33.5835 C386.832167,26.1205 394.734167,20.194 404.5385,15.804 C414.342833,11.414 424.805667,8.19466667 435.927,6.146 C447.048333,4.09733333 457.730667,3.073 467.974,3.073 Z M648.842,0 C671.084667,0 688.937333,5.56066667 702.4,16.682 C715.862667,27.8033333 722.594,43.461 722.594,63.655 C722.594,82.093 717.765,97.2385 708.107,109.0915 C698.449,120.9445 684.6205,130.309833 666.6215,137.1875 C648.6225,144.065167 627.038333,149.406333 601.869,153.211 C599.235,153.503667 596.527833,153.8695 593.7475,154.3085 C590.967167,154.7475 588.26,155.1865 585.626,155.6255 C582.992,156.0645 580.431167,156.5035 577.9435,156.9425 C575.455833,157.3815 572.895,157.893667 570.261,158.479 C539.823667,164.039667 516.776167,169.966167 501.1185,176.2585 C485.460833,182.550833 477.632,191.696667 477.632,203.696 C477.632,210.72 480.192833,216.939167 485.3145,222.3535 C490.436167,227.767833 497.021167,231.938333 505.0695,234.865 C513.117833,237.791667 521.385667,239.255 529.873,239.255 C531.336333,239.255 532.7265,239.181833 534.0435,239.0355 C535.3605,238.889167 536.6775,238.742833 537.9945,238.5965 C539.3115,238.450167 540.555333,238.377 541.726,238.377 C532.653333,235.157667 526.507333,230.475 523.288,224.329 C520.068667,218.183 518.459,211.890667 518.459,205.452 C518.459,194.623333 522.556333,186.428667 530.751,180.868 C538.945667,175.307333 549.042667,172.527 561.042,172.527 C573.919333,172.527 583.943167,175.6 591.1135,181.746 C598.283833,187.892 601.869,196.086667 601.869,206.33 C601.869,215.988 599.0155,223.89 593.3085,230.036 C587.6015,236.182 579.626333,240.645167 569.383,243.4255 C559.139667,246.205833 546.994,247.596 532.946,247.596 C519.190667,247.596 506.8255,245.327833 495.8505,240.7915 C484.8755,236.255167 476.241833,229.597 469.9495,220.817 C463.657167,212.037 460.511,201.062 460.511,187.892 C460.511,169.161333 465.5595,153.723167 475.6565,141.5775 C485.7535,129.431833 500.021,119.700667 518.459,112.384 C536.897,105.067333 558.554333,99.653 583.431,96.141 C587.821,95.5556667 592.064667,94.8971667 596.162,94.1655 C600.259333,93.4338333 604.429833,92.7021667 608.6735,91.9705 C612.917167,91.2388333 617.234,90.5803333 621.624,89.995 C646.793333,85.8976667 667.206833,80.776 682.8645,74.63 C698.522167,68.484 706.351,58.826 706.351,45.656 C706.351,38.0466667 703.9365,31.4616667 699.1075,25.901 C694.2785,20.3403333 688.1325,16.0966667 680.6695,13.17 C673.2065,10.2433333 665.524,8.78 657.622,8.78 C655.573333,8.78 653.524667,8.85316667 651.476,8.9995 C649.427333,9.14583333 647.525,9.36533333 645.769,9.658 C654.841667,12.8773333 661.646167,17.56 666.1825,23.706 C670.718833,29.852 672.987,36.1443333 672.987,42.583 C672.987,53.4116667 669.036,61.5331667 661.134,66.9475 C653.232,72.3618333 643.281333,75.069 631.282,75.069 C618.404667,75.069 608.2345,71.996 600.7715,65.85 C593.3085,59.704 589.577,51.5093333 589.577,41.266 C589.577,33.364 591.625667,26.2668333 595.723,19.9745 C599.820333,13.6821667 606.259,8.78 615.039,5.268 C623.819,1.756 635.086667,0 648.842,0 Z" id="Shape" fill="#009CD1"></path>
                <path d="M740.154,6.146 C748.719073,6.43866667 759.933008,6.73133333 773.795805,7.024 C787.658602,7.31666667 801.614,7.463 815.662,7.463 C830.327344,7.463 844.369628,7.31666667 857.788852,7.024 C871.208076,6.73133333 880.725458,6.585 886.341,6.585 C926.436333,6.585 956.288333,13.0236667 975.897,25.901 C995.505667,38.7783333 1005.31,55.314 1005.31,75.508 C1005.31,85.7513333 1001.65167,96.3605 994.335,107.3355 C987.018333,118.3105 975.897,127.9685 960.971,136.3095 C946.045,144.6505 927.021667,150.284333 903.901,153.211 L903.901,154.089 C934.045667,155.552333 958.190667,160.235 976.336,168.137 C994.481333,176.039 1007.65133,185.623833 1015.846,196.8915 C1024.04067,208.159167 1028.138,219.792667 1028.138,231.792 C1028.138,251.400667 1022.87,267.497333 1012.334,280.082 C1001.798,292.666667 986.68451,301.958833 966.993531,307.9585 C947.302552,313.958167 923.784042,316.958 896.438,316.958 C889.414,316.958 879.120365,316.7385 865.557094,316.2995 C851.993823,315.8605 835.654792,315.641 816.54,315.641 C801.906667,315.641 787.658602,315.714167 773.795805,315.8605 C759.933008,316.006833 748.719073,316.372667 740.154,316.958 L740.154,308.178 C749.226667,307.592667 755.941995,306.422 760.299984,304.666 C764.657974,302.91 767.584641,299.398 769.079984,294.13 C770.575328,288.862 771.323,280.96 771.323,270.424 L771.323,52.68 C771.323,41.8513333 770.557036,33.8761667 769.025109,28.7545 C767.493182,23.6328333 764.493349,20.1208333 760.025609,18.2185 C755.55787,16.3161667 748.934,15.2186667 740.154,14.926 L740.154,6.146 Z M884.146,14.926 C874.323375,14.926 867.916719,17.4136667 864.926031,22.389 C861.935344,27.3643333 860.44,37.4613333 860.44,52.68 L860.44,270.424 C860.44,280.667333 861.201391,288.423 862.724172,293.691 C864.246953,298.959 867.037576,302.471 871.096039,304.227 C875.154503,305.983 881.114156,306.861 888.975,306.861 C905.387198,306.861 917.319081,300.202833 924.770648,286.8865 C932.222216,273.570167 935.948,254.62 935.948,230.036 C935.948,207.500667 930.606833,190.087 919.9245,177.795 C909.242167,165.503 891.462667,159.357 866.586,159.357 L834.539,159.357 C834.539,159.357 834.539,158.113167 834.539,155.6255 C834.539,153.137833 834.539,151.894 834.539,151.894 L872.293,151.894 C883.688708,151.894 892.475568,148.6015 898.653578,142.0165 C904.831589,135.4315 909.079828,126.6515 911.398297,115.6765 C913.716766,104.7015 914.876,92.9216667 914.876,80.337 C914.876,58.6796667 912.498083,42.3635 907.74225,31.3885 C902.986417,20.4135 895.121,14.926 884.146,14.926 Z" id="Shape" fill="#FFFFFF"></path>
            </g>
            <g id="Group-15" transform="translate(87.057, 414.958)" fill="#FFFFFF">
                <g id="Path">
                    <use xlink:href="#path-1"></use>
                    <use xlink:href="#path-1"></use>
                </g>
                <g id="Shape">
                    <use xlink:href="#path-2"></use>
                    <use xlink:href="#path-2"></use>
                </g>
                <g id="Path">
                    <use xlink:href="#path-3"></use>
                    <use xlink:href="#path-3"></use>
                </g>
                <g id="Path">
                    <use xlink:href="#path-4"></use>
                    <use xlink:href="#path-4"></use>
                </g>
                <g id="Path">
                    <use xlink:href="#path-5"></use>
                    <use xlink:href="#path-5"></use>
                </g>
                <g id="Path">
                    <use xlink:href="#path-6"></use>
                    <use xlink:href="#path-6"></use>
                </g>
                <g id="Shape">
                    <use xlink:href="#path-7"></use>
                    <use xlink:href="#path-7"></use>
                </g>
                <g id="Path">
                    <use xlink:href="#path-8"></use>
                    <use xlink:href="#path-8"></use>
                </g>
            </g>
        </g>
    </g>
</svg>