<?xml version="1.0" standalone="no"?>
<!DOCTYPE svg PUBLIC "-//W3C//DTD SVG 20010904//EN"
 "http://www.w3.org/TR/2001/REC-SVG-20010904/DTD/svg10.dtd">
<svg version="1.0" xmlns="http://www.w3.org/2000/svg"
 width="657.000000pt" height="657.000000pt" viewBox="0 0 657.000000 657.000000"
 preserveAspectRatio="xMidYMid meet">
<metadata>
Created by potrace 1.14, written by Peter Selinger 2001-2017
</metadata>
<g transform="translate(0.000000,657.000000) scale(0.100000,-0.100000)"
fill="#000000" stroke="none">
<path d="M729 6566 c-2 -2 -22 -7 -43 -10 -68 -11 -149 -37 -221 -73 -224
-110 -380 -308 -447 -568 -10 -40 -13 -552 -13 -2630 l0 -2580 23 -83 c64
-235 212 -419 427 -530 64 -33 159 -66 228 -79 53 -10 5124 -11 5192 -1 65 10
165 43 237 78 236 117 409 355 448 615 5 34 9 1163 9 2590 0 2465 0 2532 -19
2618 -21 94 -78 226 -131 304 -114 165 -327 302 -527 338 -64 12 -504 14
-2618 14 -1397 1 -2543 -1 -2545 -3z"/>
</g>
</svg>
